<?xml version="1.0" encoding="utf-8"?>
<!-- Generator: Adobe Illustrator 18.1.1, SVG Export Plug-In . SVG Version: 6.00 Build 0)  -->
<!DOCTYPE svg PUBLIC "-//W3C//DTD SVG 1.1//EN" "http://www.w3.org/Graphics/SVG/1.1/DTD/svg11.dtd">
<svg version="1.1" id="Calque_1" xmlns="http://www.w3.org/2000/svg" xmlns:xlink="http://www.w3.org/1999/xlink" x="0px" y="0px"
	 viewBox="0 0 841.9 595.3" enable-background="new 0 0 841.9 595.3" xml:space="preserve">
<g>
	<path d="M546,154.8c-7.9,0-14.9,6.9-14.9,14.9v93.3c0,57.5-42.7,108.1-100.2,114.1c-65.5,6-122-45.6-122-110.1v-96.2
		c0-7.9-6.9-14.9-14.9-14.9s-14.9,6.9-14.9,14.9v96.2c0,70.4,52.6,130,121,138.9c2,0,4,2,4,4v29.8c0,2-2,4-4,4h-52.6
		c-7.9,0-14.9,6.9-14.9,14.9c0,7.9,6.9,14.9,14.9,14.9h73.4l0,0l0,0h71.4c7.9,0,14.9-6.9,14.9-14.9c0-7.9-6.9-14.9-14.9-14.9h-52.6
		c-2,0-4-2-4-4v-29.8c0-2,2-4,4-4c68.5-8.9,121-67.5,121-138.9v-98.2C560.8,160.7,553.9,154.8,546,154.8z"/>
	<path d="M476.5,286.7c-7.9,0-14.9-6.9-14.9-14.9c0-7.9,6.9-14.9,14.9-14.9h23.8c2,0,3-1,3-3v-31.7c0-2-1-3-3-3h-23.8
		c-7.9,0-14.9-6.9-14.9-14.9s6.9-14.9,14.9-14.9h23.8c2,0,3-1,3-3v-26.8c0-2-1-3-3-3h-23.8c-7.9,0-14.9-6.9-14.9-14.9
		c0-7.9,6.9-14.9,14.9-14.9h23.8c2,0,3-1,3-3V97.2c0-2-1-3-3-3h-23.8c-7.9,0-14.9-6.9-14.9-14.9s6.9-14.9,14.9-14.9h21.8
		c2,0,3-2,3-3C492.4,25.8,459.6-1,420.9-1l0,0c-38.7,0-70.4,26.8-80.4,62.5c0,2,1,3,3,3h21.8c7.9,0,14.9,6.9,14.9,14.9
		s-6.9,19.8-14.9,19.8h-23.8c-2,0-3,1-3,3V129c0,2,1,3,3,3h23.8c7.9,0,14.9,6.9,14.9,14.9s-6.9,14.9-14.9,14.9h-23.8c-2,0-3,1-3,3
		v26.8c0,2,1,3,3,3h23.8c7.9,0,14.9,6.9,14.9,14.9c0,7.9-6.9,14.9-14.9,14.9h-23.8c-2,0-3,1-3,3V254c0,2,1,3,3,3h23.8
		c7.9,0,14.9,6.9,14.9,14.9c0,7.9-6.9,14.9-14.9,14.9h-21.8c-2,0-3,2-3,3c8.9,35.7,41.7,62.5,80.4,62.5l0,0
		c38.7,0,70.4-26.8,80.4-62.5c0-2-1-3-3-3H476.5L476.5,286.7z"/>
</g>
<text transform="matrix(1 0 0 1 182.8283 625.0353)" font-family="'HelveticaNeue-Bold'" font-size="49.6067">Created by Creative Stall</text>
<text transform="matrix(1 0 0 1 182.8283 674.6504)" font-family="'HelveticaNeue-Bold'" font-size="49.6067">from the Noun Project</text>
</svg>
