<svg xmlns="http://www.w3.org/2000/svg" xmlns:xlink="http://www.w3.org/1999/xlink" version="1.1" x="0px" y="0px" viewBox="0 0 100 100" enable-background="new 0 0 100 100" xml:space="preserve"><path d="M75.653,58.509h-6.476v-6.477c0-0.497-0.402-0.899-0.9-0.899h-8.851c-0.496,0-0.899,0.402-0.899,0.899v6.477h-6.474  c-0.496,0-0.899,0.402-0.899,0.899v8.85c0,0.498,0.403,0.9,0.899,0.9h6.474v6.477c0,0.497,0.403,0.9,0.899,0.9h8.851  c0.498,0,0.9-0.403,0.9-0.9v-6.477h6.476c0.498,0,0.9-0.402,0.9-0.9v-8.85C76.554,58.911,76.151,58.509,75.653,58.509z"></path><path d="M93.2,42.187H37.659c-0.994,0-1.8,0.807-1.8,1.8v9.684H24.368c-0.582,0-1.126,0.28-1.463,0.752l-6.442,9.004  c-0.735,0.242-1.458,0.47-2.157,0.689C9.519,65.615,5,67.033,5,71.27v15.145c0,0.994,0.807,1.801,1.8,1.801h5.758  c-0.013-0.203-0.032-0.403-0.032-0.609c-0.003-2.764,1.069-5.363,3.022-7.321c1.952-1.957,4.549-3.037,7.314-3.041  c5.712,0,10.355,4.637,10.362,10.337c0,0.214-0.019,0.423-0.031,0.634h33.941c-0.013-0.202-0.031-0.402-0.031-0.608  c-0.001-1.04,0.155-2.044,0.442-2.992H39.459V45.787H91.4v38.828h-4.04c0.284,0.94,0.441,1.935,0.443,2.967  c0,0.213-0.02,0.424-0.032,0.634H93.2c0.993,0,1.8-0.807,1.8-1.801V43.987C95,42.993,94.195,42.187,93.2,42.187z"></path><path d="M22.888,96.144c4.499-0.007,8.186-3.509,8.507-7.929c0.015-0.209,0.031-0.419,0.031-0.632  c-0.006-4.708-3.842-8.538-8.55-8.538c-2.294,0.004-4.439,0.895-6.053,2.512c-1.613,1.617-2.5,3.766-2.496,6.049  c0,0.206,0.017,0.408,0.032,0.61c0.32,4.423,4.017,7.929,8.521,7.929"></path><path d="M77.466,96.144c4.5-0.007,8.187-3.509,8.508-7.929c0.014-0.209,0.03-0.419,0.03-0.632c0-1.046-0.2-2.043-0.545-2.969  c-1.215-3.247-4.34-5.569-8.004-5.569c-3.668,0.004-6.79,2.327-8.003,5.569c-0.35,0.933-0.549,1.937-0.548,2.989  c0,0.207,0.017,0.408,0.031,0.611c0.321,4.423,4.018,7.929,8.521,7.929"></path></svg>