<svg xmlns="http://www.w3.org/2000/svg" xmlns:xlink="http://www.w3.org/1999/xlink" version="1.1" x="0px" y="0px" viewBox="0 0 100 125" enable-background="new 0 0 100 100" xml:space="preserve"><g><path d="M67.366,24.087c-3.759-0.753-6.204-4.453-5.44-8.255c0.766-3.808,4.443-6.273,8.206-5.521   c3.768,0.754,6.197,4.444,5.436,8.25C74.807,22.362,71.138,24.84,67.366,24.087"/><path d="M98.023,38.335L82.831,23.246c-0.979-1.044-2.163-1.571-3.561-1.571c-1.172,0-2.18,0.351-3.037,1.018   c-0.191,0.092-23.007,17.042-23.007,17.042c-1.525,1.135-1.842,3.292-0.707,4.817c0.677,0.908,1.715,1.388,2.765,1.388   c0.714,0,1.437-0.223,2.054-0.683l12.838-9.552L59.128,49.13c-1.209,1.467-0.997,3.637,0.469,4.844   c0.644,0.528,1.417,0.786,2.187,0.786c0.993,0,1.98-0.43,2.661-1.257l13.07-15.883l10.032,10.986v35.05   c0,1.604,0.559,2.947,1.676,4.029c1.116,1.08,2.476,1.625,4.086,1.625c1.537,0,2.86-0.545,3.98-1.625   c1.116-1.082,1.674-2.426,1.674-4.029V40.64C98.963,39.732,98.65,38.962,98.023,38.335z"/></g><g><g><path d="M29.738,39.495c3.427,1.455,7.393-0.156,8.849-3.586c1.457-3.435-0.147-7.393-3.58-8.848    c-3.427-1.449-7.397,0.151-8.849,3.581C24.703,34.069,26.311,38.046,29.738,39.495z"/><path d="M41.298,55.62l-5.968,0.815l-3.221-12.227c-0.06-0.229-0.147-0.438-0.257-0.634c-0.405-0.972-1.034-1.858-1.866-2.545    c-0.294-0.31-0.685-0.579-1.163-0.784c-0.06-0.027-0.386-0.193-0.446-0.213l-0.004,0.007c-0.474-0.2-0.933-0.282-1.355-0.278    c-0.717-0.078-1.3-0.089-1.99,0.069c-0.234,0.021-0.597,0.118-0.827,0.202L9.439,45.154c-1.148,0.399-1.934,1.477-1.948,2.688    l-0.143,7.841c-0.033,1.605,1.24,2.926,2.849,2.961c0.018,0,0.032,0,0.051,0c1.58,0,2.872-1.271,2.903-2.849l0.106-5.821    l5.132-1.776c-1.246,2.915-2.426,5.708-3.786,8.922c-0.198,0.469-0.335,0.772-0.51,1.415c-0.17,0.729-0.17,1.234-0.17,1.709    l-0.032,7.708l-9.534-0.021c-1.934,0-3.487,1.577-3.487,3.5c0,1.794,1.553,3.278,3.478,3.278h13.007c0.004,0,0.004,0,0.004,0    c1.916,0,3.474-1.549,3.483-3.468l0.033-5.324l6.105,7.573l-3.648,11.264c-0.312,0.964-0.172,1.961,0.289,2.778H9.904v1.765    h16.655c0.029,0,0.059,0.014,0.087,0.014c1.47,0,2.84-0.931,3.317-2.412l4.227-13.052c0.087-0.275,0.138-0.558,0.166-0.841    c0-0.089-0.019-0.17-0.019-0.257c0-0.195,0-0.386-0.037-0.576c-0.014-0.104-0.055-0.202-0.082-0.307    c-0.046-0.174-0.088-0.337-0.161-0.495c-0.042-0.106-0.115-0.203-0.17-0.299c-0.073-0.129-0.128-0.267-0.211-0.377l-7.089-9.531    c0.854-2.041,1.659-3.949,2.444-5.826l1.333,5.062c0.339,1.287,1.507,2.167,2.802,2.167c0.134,0,0.267-0.012,0.4-0.027    l8.519-1.162c1.589-0.214,2.701-1.682,2.486-3.272C44.354,56.521,42.911,55.404,41.298,55.62z"/></g></g><text x="0" y="115" fill="#000000" font-size="5px" font-weight="bold" font-family="'Helvetica Neue', Helvetica, Arial-Unicode, Arial, Sans-serif">Created by Luis Prado</text><text x="0" y="120" fill="#000000" font-size="5px" font-weight="bold" font-family="'Helvetica Neue', Helvetica, Arial-Unicode, Arial, Sans-serif">from the Noun Project</text></svg>